<svg preserveAspectRatio="none" overflow="visible" style="display: block;" width="91" height="91" viewBox="0 0 91 91" fill="none" xmlns="http://www.w3.org/2000/svg">
<path id="Vector" fill-rule="evenodd" clip-rule="evenodd" d="M30.5034 0H60.3946V3.53889H67.3318V7.07778H74.065V10.5156L77.3806 10.5145L77.4571 11.652C77.499 12.2789 77.5326 13.0292 77.5336 13.8522L80.8492 13.9028L80.9002 17.1889H84.2668L84.2648 23.7106L85.1074 23.7854C85.5706 23.8268 86.3286 23.8612 87.6334 23.8622V30.5356H91V60.7678H87.6334V67.5422H84.2668V74.1144H80.9002L80.8492 77.5017L77.5336 77.5522L77.4826 80.8383L74.065 80.8889L74.014 84.2761L67.3318 84.3267V87.6633H63.8632V91H60.3946V70.8789H57.028L56.977 67.526L53.9165 67.4917L53.8655 64.1044H63.8632V60.7678L67.1788 60.7172L67.2298 57.2289H70.5964V50.6567H73.963V33.9733H70.5964V27.1989H67.2298V17.1889H63.8632V20.4244H57.028V23.7611H33.5639V20.4244H27.1368V17.1889H23.6682V27.1989H20.3016V33.9733H17.037V50.6567L20.2506 50.6061L20.3016 57.2289H23.6682L23.7192 60.7172L25.4025 60.7678C26.6542 60.8052 27.0858 60.8507 27.0858 60.9447C27.0858 61.0145 27.097 61.7536 27.1368 64.1044H36.9305V67.4411L33.6649 67.5928L33.6465 68.5533C33.6363 69.0821 33.6384 69.6271 33.6496 69.7667C33.6618 69.9052 33.6465 70.2126 33.5639 70.8789H23.5661L23.5672 67.5928L20.3016 67.4411V64.1044H16.935V60.7678H10.6099V64.1044H13.6704V67.4411L16.986 67.4917L17.037 70.7778L20.2506 70.8283L20.3016 74.1144H23.6682V77.5522H33.5639L33.621 79.0942C33.6527 79.9425 33.6639 82.9566 33.6149 90.9494L27.1368 91V87.6633H23.5661V84.3267L16.986 84.2761L16.935 80.8889H13.5684V77.5522L10.1508 77.5017L10.0998 74.1144H6.73318V67.5422L3.46759 67.3906L3.46861 60.7678H0V47.3958C0 40.041 0.0346861 33.2393 0.153027 30.5345L3.46861 30.5356V23.8622L6.76481 23.8117L6.73318 17.1889H10.0998V13.8522H13.5684V10.5156H16.935V7.07778H23.5661V3.53889H30.5034V0ZM60.3946 39.5344V51.0611L54.2225 51.0106L54.196 45.3989C54.1817 42.313 54.1919 39.7306 54.2195 39.6608C54.2572 39.5638 54.9754 39.5344 60.3946 39.5344ZM30.5034 39.6356H36.6244V50.96H30.5034V39.6356Z" fill="#F5EDE7"/>
</svg>
